<svg xmlns="http://www.w3.org/2000/svg" xmlns:xlink="http://www.w3.org/1999/xlink" width="100" height="100" viewBox="0 0 100 100">
  <defs>
    <clipPath id="clip-card_holder_name">
      <rect width="100" height="100"/>
    </clipPath>
  </defs>
  <g id="card_holder_name" data-name="card holder name" clip-path="url(#clip-card_holder_name)">
    <rect id="Rectangle_5346" data-name="Rectangle 5346" width="100" height="100" rx="12" fill="#ffc938"/>
    <path id="Icon_awesome-address-card" data-name="Icon awesome-address-card" d="M73.333,2.25H6.667A6.668,6.668,0,0,0,0,8.917V57.806a6.668,6.668,0,0,0,6.667,6.667H73.333A6.668,6.668,0,0,0,80,57.806V8.917A6.668,6.668,0,0,0,73.333,2.25ZM24.444,15.583a8.889,8.889,0,1,1-8.889,8.889A8.9,8.9,0,0,1,24.444,15.583ZM40,48.472a2.913,2.913,0,0,1-3.111,2.667H12a2.913,2.913,0,0,1-3.111-2.667V45.806c0-4.417,4.181-8,9.333-8h.694a14.306,14.306,0,0,0,11.056,0h.694c5.153,0,9.333,3.583,9.333,8Zm31.111-7.333A1.114,1.114,0,0,1,70,42.25H50a1.114,1.114,0,0,1-1.111-1.111V38.917A1.114,1.114,0,0,1,50,37.806H70a1.114,1.114,0,0,1,1.111,1.111Zm0-8.889A1.114,1.114,0,0,1,70,33.361H50a1.114,1.114,0,0,1-1.111-1.111V30.028A1.114,1.114,0,0,1,50,28.917H70a1.114,1.114,0,0,1,1.111,1.111Zm0-8.889A1.114,1.114,0,0,1,70,24.472H50a1.114,1.114,0,0,1-1.111-1.111V21.139A1.114,1.114,0,0,1,50,20.028H70a1.114,1.114,0,0,1,1.111,1.111Z" transform="translate(10 16.75)"/>
  </g>
</svg>
