<svg xmlns="http://www.w3.org/2000/svg" xmlns:xlink="http://www.w3.org/1999/xlink" width="100" height="100" viewBox="0 0 100 100">
  <defs>
    <clipPath id="clip-country_code">
      <rect width="100" height="100"/>
    </clipPath>
  </defs>
  <g id="country_code" data-name="country code" clip-path="url(#clip-country_code)">
    <rect id="Rectangle_1" data-name="Rectangle 1" width="100" height="100" rx="10" fill="#ffc938"/>
    <path id="Icon_awesome-flag" data-name="Icon awesome-flag" d="M48,13.72c-7.443,0-13.589-4.831-22.947-4.831A26.994,26.994,0,0,0,15.6,10.557,7.778,7.778,0,1,0,3.9,14.159V67.778a3.333,3.333,0,0,0,3.333,3.333H9.451a3.333,3.333,0,0,0,3.333-3.333V54.667a38.805,38.805,0,0,1,15.894-3.073c7.443,0,13.589,4.831,22.947,4.831,6.69,0,12.037-2.263,17.015-5.675a4.437,4.437,0,0,0,1.923-3.661V13.326A4.444,4.444,0,0,0,64.245,9.3C59.476,11.511,53.627,13.72,48,13.72Z" transform="translate(14.438 14)"/>
  </g>
</svg>
