<svg xmlns="http://www.w3.org/2000/svg" xmlns:xlink="http://www.w3.org/1999/xlink" width="100" height="100" viewBox="0 0 100 100">
  <defs>
    <clipPath id="clip-Credit_Card_Number">
      <rect width="100" height="100"/>
    </clipPath>
  </defs>
  <g id="Credit_Card_Number" data-name="Credit Card Number" clip-path="url(#clip-Credit_Card_Number)">
    <rect id="Rectangle_5346" data-name="Rectangle 5346" width="100" height="100" rx="12" fill="#ffc938"/>
    <path id="Icon_awesome-credit-card" data-name="Icon awesome-credit-card" d="M0,57.806a6.668,6.668,0,0,0,6.667,6.667H73.333A6.668,6.668,0,0,0,80,57.806V33.361H0Zm26.667-9.444a1.672,1.672,0,0,1,1.667-1.667H47.222a1.672,1.672,0,0,1,1.667,1.667v5.556a1.672,1.672,0,0,1-1.667,1.667H28.333a1.672,1.672,0,0,1-1.667-1.667Zm-17.778,0a1.672,1.672,0,0,1,1.667-1.667h10a1.672,1.672,0,0,1,1.667,1.667v5.556a1.672,1.672,0,0,1-1.667,1.667h-10a1.672,1.672,0,0,1-1.667-1.667ZM80,8.917v6.667H0V8.917A6.668,6.668,0,0,1,6.667,2.25H73.333A6.668,6.668,0,0,1,80,8.917Z" transform="translate(10 16.75)"/>
  </g>
</svg>
