<svg xmlns="http://www.w3.org/2000/svg" xmlns:xlink="http://www.w3.org/1999/xlink" width="100" height="100" viewBox="0 0 100 100">
  <defs>
    <clipPath id="clip-cross">
      <rect width="100" height="100"/>
    </clipPath>
  </defs>
  <g id="cross" clip-path="url(#clip-cross)">
    <path id="Icon_metro-cross" data-name="Icon metro-cross" d="M101.659,82.266h0L71.321,51.928l30.336-30.337h0a3.132,3.132,0,0,0,0-4.419L87.327,2.841a3.133,3.133,0,0,0-4.419,0h0L52.571,33.178,22.234,2.841h0a3.133,3.133,0,0,0-4.418,0L3.484,17.172a3.132,3.132,0,0,0,0,4.418h0L33.821,51.928,3.484,82.265h0a3.132,3.132,0,0,0,0,4.418l14.331,14.331a3.132,3.132,0,0,0,4.419,0h0L52.571,70.678l30.337,30.337h0a3.132,3.132,0,0,0,4.418,0l14.331-14.331a3.132,3.132,0,0,0,0-4.418Z" transform="translate(-2.571 -1.928)" fill="#141414"/>
  </g>
</svg>
