<svg xmlns="http://www.w3.org/2000/svg" xmlns:xlink="http://www.w3.org/1999/xlink" width="100" height="100" viewBox="0 0 100 100">
  <defs>
    <clipPath id="clip-gender">
      <rect width="100" height="100"/>
    </clipPath>
  </defs>
  <g id="gender" clip-path="url(#clip-gender)">
    <rect id="Rectangle_5346" data-name="Rectangle 5346" width="100" height="100" rx="12" fill="#ffc938"/>
    <path id="Icon_metro-users" data-name="Icon metro-users" d="M55.9,58.658V54.992c4.9-2.759,8.889-9.637,8.889-16.516,0-11.046,0-20-13.333-20s-13.333,8.954-13.333,20c0,6.879,3.993,13.757,8.889,16.516v3.665c-15.077,1.233-26.667,8.64-26.667,17.6H82.571c0-8.956-11.59-16.364-26.667-17.6ZM25.293,60.374A42.225,42.225,0,0,1,39.168,54.79a25.071,25.071,0,0,1-2.812-4.1,25.449,25.449,0,0,1-3.229-12.215c0-5.975,0-11.619,2.125-16.233,2.063-4.479,5.773-7.257,11.057-8.3-1.175-5.311-4.3-8.8-12.627-8.8-13.333,0-13.333,8.954-13.333,20,0,6.879,3.993,13.757,8.889,16.516v3.665c-15.077,1.232-26.667,8.64-26.667,17.6H21.947a28.468,28.468,0,0,1,3.347-2.547Z" transform="translate(7.429 8.857)"/>
  </g>
</svg>
