<svg xmlns="http://www.w3.org/2000/svg" xmlns:xlink="http://www.w3.org/1999/xlink" width="100" height="100" viewBox="0 0 100 100">
  <defs>
    <clipPath id="clip-call">
      <rect width="100" height="100"/>
    </clipPath>
  </defs>
  <g id="call" clip-path="url(#clip-call)">
    <g id="Rectangle_5337" data-name="Rectangle 5337" fill="#ffc938" stroke="#000" stroke-width="1">
      <rect width="100" height="100" rx="19" stroke="none"/>
      <rect x="0.5" y="0.5" width="99" height="99" rx="18.5" fill="none"/>
    </g>
    <path id="Icon_ionic-ios-call" data-name="Icon ionic-ios-call" d="M62.757,51.48A50.4,50.4,0,0,0,52.23,44.436c-3.155-1.515-4.311-1.484-6.545.125-1.859,1.343-3.061,2.593-5.2,2.124-2.14-.453-6.357-3.655-10.449-7.732-4.092-4.092-7.279-8.31-7.732-10.449-.453-2.155.8-3.343,2.124-5.2,1.609-2.234,1.656-3.389.125-6.545-1.3-2.733-4.733-8.231-7.044-10.527-2.3-2.3-2.811-1.8-4.077-1.343A23.2,23.2,0,0,0,9.7,6.871,11.261,11.261,0,0,0,5.215,11.6c-.89,1.921-1.921,5.5,3.327,14.838A82.8,82.8,0,0,0,23.1,45.857h0l.016.016.016.016h0A83.12,83.12,0,0,0,42.545,60.446c9.34,5.248,12.917,4.217,14.838,3.327a11.069,11.069,0,0,0,4.733-4.483A23.2,23.2,0,0,0,64.1,55.557C64.553,54.292,65.069,53.776,62.757,51.48Z" transform="translate(15.51 15.498)"/>
  </g>
</svg>
