<svg xmlns="http://www.w3.org/2000/svg" xmlns:xlink="http://www.w3.org/1999/xlink" width="100" height="100" viewBox="0 0 100 100">
  <defs>
    <linearGradient id="linear-gradient" x1="0.5" x2="0.5" y2="1" gradientUnits="objectBoundingBox">
      <stop offset="0" stop-color="#ed8652"/>
      <stop offset="1" stop-color="#eabd53"/>
    </linearGradient>
    <filter id="Rectangle_17432" x="-9" y="-6" width="118" height="118" filterUnits="userSpaceOnUse">
      <feOffset dy="3" input="SourceAlpha"/>
      <feGaussianBlur stdDeviation="3" result="blur"/>
      <feFlood flood-opacity="0.161"/>
      <feComposite operator="in" in2="blur"/>
      <feComposite in="SourceGraphic"/>
    </filter>
    <clipPath id="clip-recording">
      <rect width="100" height="100"/>
    </clipPath>
  </defs>
  <g id="recording" clip-path="url(#clip-recording)">
    <g transform="matrix(1, 0, 0, 1, 0, 0)" filter="url(#Rectangle_17432)">
      <rect id="Rectangle_17432-2" data-name="Rectangle 17432" width="100" height="100" rx="18" fill="url(#linear-gradient)"/>
    </g>
    <g id="Icon_material-record-voice-over" data-name="Icon material-record-voice-over" transform="translate(13.5 17)">
      <path id="Path_38" data-name="Path 38" d="M32.956,20.228A12.728,12.728,0,1,1,20.228,7.5,12.728,12.728,0,0,1,32.956,20.228Z" transform="translate(6.728 5.046)"/>
      <path id="Path_39" data-name="Path 39" d="M26.956,44.365c-8.5,0-25.456,4.264-25.456,12.728v6.364H52.411V57.093C52.411,48.629,35.451,44.365,26.956,44.365ZM51.648,13.691,46.3,19.069a10.556,10.556,0,0,1,0,12.378l5.346,5.378C58.075,30.4,58.075,20.692,51.648,13.691ZM62.18,3,56.993,8.187c8.814,9.609,8.814,24.056,0,34.174l5.187,5.187C74.589,35.17,74.621,15.887,62.18,3Z" transform="translate(0 0)"/>
    </g>
  </g>
</svg>
